<svg width="70" height="70" viewBox="0 0 70 70" fill="none" xmlns="http://www.w3.org/2000/svg">
<path d="M68.5416 57.123C68.5416 59.5558 66.6312 61.5344 64.2687 61.5344H24.6896C22.3271 61.5344 20.4167 59.5558 20.4167 57.123V32.2373C20.4167 29.8045 22.3271 27.8259 24.6896 27.8259H64.2833C66.6458 27.8259 68.5562 29.8045 68.5562 32.2373V57.123H68.5416Z" stroke="white" stroke-width="2" stroke-miterlimit="10"/>
<path d="M17.5 53.3418L15.8958 53.928C13.6208 54.7634 11.025 53.6349 10.1937 51.3486L1.70625 27.9432C0.874996 25.6569 2.14375 23.0774 4.41875 22.2567L41.4167 8.72936C43.6917 7.89398 46.0979 9.12507 46.9292 11.4114L51.8146 24.9094" stroke="white" stroke-width="2" stroke-miterlimit="10"/>
<path d="M68.5417 35.1538H20.4167" stroke="white" stroke-width="2" stroke-miterlimit="10"/>
<path d="M68.5417 42.4817H20.4167" stroke="white" stroke-width="2" stroke-miterlimit="10"/>
<path d="M24.7917 48.3441H35" stroke="white" stroke-width="2" stroke-miterlimit="10"/>
</svg>
