<svg width="85" height="69" viewBox="0 0 85 69" fill="none" xmlns="http://www.w3.org/2000/svg">
<path d="M49.318 10.9586L49.3179 10.9587L20.7807 39.4962L10.6821 29.3977C10.6821 29.3976 10.682 29.3976 10.682 29.3976C8.92452 27.64 6.07549 27.6405 4.3182 29.3975L4.31813 29.3975C2.56058 31.1549 2.56069 34.0041 4.31806 35.7615L4.31807 35.7615L17.5985 49.0417C19.356 50.7998 22.2065 50.7981 23.9627 49.0419L55.6818 17.3227C55.6819 17.3227 55.6819 17.3227 55.6819 17.3226C57.4395 15.5652 57.439 12.716 55.682 10.9588C53.9246 9.20117 51.0754 9.20137 49.318 10.9586Z" fill="#29A576" stroke="#29A576" stroke-width="4"/>
<path d="M74.318 19.9586L74.3179 19.9587L45.7807 48.4962L35.6821 38.3977C35.6821 38.3976 35.682 38.3976 35.682 38.3976C33.9245 36.64 31.0755 36.6405 29.3182 38.3975L29.3181 38.3975C27.5606 40.1549 27.5607 43.0041 29.3181 44.7615L29.3181 44.7615L42.5985 58.0417C42.5986 58.0418 42.5986 58.0418 42.5987 58.0419C44.3563 59.7998 47.2066 59.798 48.9627 58.0419L80.6818 26.3227C80.6819 26.3227 80.6819 26.3227 80.6819 26.3226C82.4395 24.5652 82.4391 21.716 80.682 19.9588C78.9246 18.2012 76.0754 18.2014 74.318 19.9586Z" fill="white" stroke="white" stroke-width="4"/>
</svg>
