<svg width="23" height="23" viewBox="0 0 23 23" fill="none" xmlns="http://www.w3.org/2000/svg">
<g clip-path="url(#clip0_7_26)">
<path d="M20.125 9.58349C20.125 16.2918 11.5 22.0418 11.5 22.0418C11.5 22.0418 2.875 16.2918 2.875 9.58349C2.875 7.296 3.7837 5.1022 5.4012 3.4847C7.0187 1.8672 9.21251 0.958496 11.5 0.958496C13.7875 0.958496 15.9813 1.8672 17.5988 3.4847C19.2163 5.1022 20.125 7.296 20.125 9.58349Z" stroke="white" stroke-width="2" stroke-linecap="round" stroke-linejoin="round"/>
<path d="M11.5 12.4585C13.0878 12.4585 14.375 11.1713 14.375 9.5835C14.375 7.99568 13.0878 6.7085 11.5 6.7085C9.91218 6.7085 8.625 7.99568 8.625 9.5835C8.625 11.1713 9.91218 12.4585 11.5 12.4585Z" stroke="white" stroke-width="2" stroke-linecap="round" stroke-linejoin="round"/>
</g>
<defs>
<clipPath id="clip0_7_26">
<rect width="23" height="23" fill="white"/>
</clipPath>
</defs>
</svg>
