<svg width="50" height="50" viewBox="0 0 50 50" fill="none" xmlns="http://www.w3.org/2000/svg">
<path d="M48.9583 40.8022C48.9583 42.54 47.5937 43.9532 45.9062 43.9532H17.6354C15.9479 43.9532 14.5833 42.54 14.5833 40.8022V23.0267C14.5833 21.289 15.9479 19.8757 17.6354 19.8757H45.9166C47.6041 19.8757 48.9687 21.289 48.9687 23.0267V40.8022H48.9583Z" stroke="white" stroke-width="2" stroke-miterlimit="10"/>
<path d="M12.5 38.1012L11.3542 38.52C9.72915 39.1167 7.87499 38.3106 7.28124 36.6775L1.21874 19.9594C0.624988 18.3263 1.53124 16.4838 3.15624 15.8976L29.5833 6.23522C31.2083 5.63852 32.9271 6.51787 33.5208 8.15095L37.0104 17.7924" stroke="white" stroke-width="2" stroke-miterlimit="10"/>
<path d="M48.9583 25.1099H14.5833" stroke="white" stroke-width="2" stroke-miterlimit="10"/>
<path d="M48.9583 30.344H14.5833" stroke="white" stroke-width="2" stroke-miterlimit="10"/>
<path d="M17.7083 34.5315H25" stroke="white" stroke-width="2" stroke-miterlimit="10"/>
</svg>
